<?xml version="1.0" encoding="UTF-8" standalone="no"?>
<!-- Created with Inkscape (http://www.inkscape.org/) -->

<svg
   width="512"
   height="512"
   viewBox="0 0 135.46666 135.46667"
   version="1.1"
   id="svg36498"
   sodipodi:docname="Icon.svg"
   inkscape:export-filename="/home/abhi/bitmap.png"
   inkscape:export-xdpi="96"
   inkscape:export-ydpi="96"
   xmlns:inkscape="http://www.inkscape.org/namespaces/inkscape"
   xmlns:sodipodi="http://sodipodi.sourceforge.net/DTD/sodipodi-0.dtd"
   xmlns="http://www.w3.org/2000/svg"
   xmlns:svg="http://www.w3.org/2000/svg">
  <sodipodi:namedview
     id="namedview36500"
     pagecolor="#505050"
     bordercolor="#eeeeee"
     borderopacity="1"
     inkscape:pageshadow="0"
     inkscape:pageopacity="0"
     inkscape:pagecheckerboard="0"
     inkscape:document-units="px"
     showgrid="false"
     units="px"
     inkscape:zoom="0.67081229"
     inkscape:cx="-73.791135"
     inkscape:cy="561.25984"
     inkscape:window-width="1920"
     inkscape:window-height="1080"
     inkscape:window-x="0"
     inkscape:window-y="0"
     inkscape:window-maximized="1"
     inkscape:current-layer="layer1"
     inkscape:snap-bbox="true" />
  <defs
     id="defs36495" />
  <g
     inkscape:label="Layer 1"
     inkscape:groupmode="layer"
     id="layer1">
    <g
       id="g36183"
       inkscape:export-filename="/home/abhi/g36183.png"
       inkscape:export-xdpi="96"
       inkscape:export-ydpi="96"
       transform="matrix(1.2089425,0,0,1.2089979,609.93532,225.84092)">
      <path
         d="m -421.00717,-111.43686 c 0,0 -0.12968,-0.79562 -0.20549,-0.78846 l -14.43708,1.39295 c -1.14875,0.11092 -2.04093,1.02704 -2.12154,2.17819 l -0.39663,5.68466 -11.16894,0.79682 -0.75971,-5.15197 c -0.16918,-1.14596 -1.16988,-2.00981 -2.32823,-2.00981 h -15.23753 c -1.15792,0 -2.15865,0.86385 -2.32784,2.00981 l -0.76013,5.15197 -11.16894,-0.79682 -0.39663,-5.68466 c -0.0806,-1.15154 -0.97279,-2.06767 -2.12154,-2.17862 l -14.44413,-1.39255 c -0.0746,-0.007 -0.12928,0.78923 -0.20389,0.78923 l -0.0195,3.12427 12.23292,1.9727 0.40062,5.73546 c 0.081,1.161134 1.01787,2.099983 2.17978,2.18338 l 15.38217,1.09728 c 0.0583,0.004 0.11571,0.0064 0.17317,0.0064 1.15595,0 2.15505,-0.864268 2.32424,-2.010198 l 0.78165,-5.301192 h 11.17424 l 0.78165,5.301192 c 0.16878,1.145577 1.1691,2.009812 2.32664,2.009812 0.0567,0 0.11332,-0.002 0.16878,-0.006 l 15.38429,-1.09728 c 1.16152,-0.08339 2.09878,-1.022279 2.17978,-2.183384 l 0.40019,-5.73546 12.22763,-1.98148 z"
         fill="#ffffff"
         stroke-width="0.352778"
         id="path34094" />
      <path
         d="m -469.08991,-168.59392 c -4.06347,0.90337 -8.08328,2.16075 -11.85201,4.05765 0.0862,3.32767 0.30131,6.51616 0.73742,9.75492 -1.46357,0.93769 -3.0017,1.74247 -4.3688,2.84004 -1.38895,1.06855 -2.80776,2.09119 -4.06532,3.3409 -2.51256,-1.66188 -5.17155,-3.22369 -7.91104,-4.60243 -2.95302,3.17817 -5.71447,6.6085 -7.97005,10.44681 1.69699,2.74531 3.46869,5.31839 5.38163,7.76023 h 0.0532 v 23.55823 c 0.0431,2.7e-4 0.0865,0.002 0.12919,0.006 l 14.44255,1.39215 c 0.75652,0.073 1.34932,0.6821 1.40198,1.44024 l 0.44545,6.3754 12.59814,0.89916 0.86764,-5.88434 c 0.11252,-0.7629 0.76724,-1.32807 1.53892,-1.32807 h 15.23736 c 0.77129,0 1.42589,0.56517 1.53839,1.32807 l 0.86765,5.88434 12.59867,-0.89916 0.44492,-6.3754 c 0.0531,-0.75811 0.64545,-1.36681 1.40198,-1.44024 l 14.43672,-1.39215 c 0.0427,-0.004 0.0856,-0.006 0.12867,-0.006 v -1.87999 l 0.006,-0.002 v -21.67625 h 0.0532 c 1.91325,-2.44195 3.68379,-5.01518 5.38162,-7.76023 -2.2548,-3.83858 -5.01756,-7.2689 -7.97057,-10.44681 -2.7387,1.37858 -5.39909,2.94031 -7.91157,4.60243 -1.25727,-1.24971 -2.67335,-2.27233 -4.06426,-3.3409 -1.36663,-1.09768 -2.90698,-1.90246 -4.36775,-2.84004 0.43493,-3.23876 0.65032,-6.42725 0.73692,-9.75492 -3.76898,-1.89704 -7.78853,-3.1545 -11.85412,-4.05779 -1.62316,2.72812 -3.10753,5.68193 -4.40028,8.57012 -1.533,-0.25617 -3.07314,-0.35113 -4.61513,-0.36949 v -0.002 c -0.0108,0 -0.0208,0.002 -0.03,0.002 -0.01,0 -0.0199,-0.002 -0.0295,-0.002 v 0.002 c -1.54498,0.0183 -3.08398,0.11332 -4.61724,0.36949 -1.29199,-2.88793 -2.77522,-5.842 -4.40082,-8.57012 z m -30.01962,60.27209 c 0.006,1.39573 0.0238,2.9247 0.0238,3.22924 0,13.715469 17.399,20.307828 39.01546,20.383765 h 0.0532 c 21.61673,-0.07582 39.01017,-6.668296 39.01017,-20.383765 0,-0.31004 0.0189,-1.83272 0.0253,-3.22924 l -12.98152,1.25211 -0.44752,6.40953 c -0.0539,0.772483 -0.66826,1.387346 -1.44073,1.442803 l -15.3842,1.097599 c -0.0375,0.0028 -0.075,0.0041 -0.11214,0.0041 -0.76451,0 -1.42393,-0.561419 -1.53685,-1.329106 l -0.88213,-5.982496 h -12.55262 l -0.88212,5.982496 c -0.11851,0.805206 -0.8382,1.384433 -1.64899,1.32498 l -15.3842,-1.097599 c -0.77248,-0.05546 -1.38687,-0.67032 -1.44074,-1.442797 l -0.44701,-6.40953 -12.98681,-1.25211 z"
         fill="#478cbf"
         id="path34096"
         style="fill:#8dd35f;stroke-width:0.264583" />
      <path
         d="m -480.51647,-134.13194 c -4.80483,0 -8.70241,3.89361 -8.70241,8.69924 0,4.8088 3.89731,8.70426 8.70241,8.70426 4.80722,0 8.70374,-3.89546 8.70374,-8.70426 0,-4.80563 -3.89652,-8.69924 -8.70374,-8.69924 z m 40.94692,0 c -4.80801,0 -8.70426,3.89361 -8.70426,8.69924 0,4.8088 3.89625,8.70426 8.70426,8.70426 4.80457,0 8.70135,-3.89546 8.70135,-8.70426 0,-4.80563 -3.89678,-8.69924 -8.70135,-8.69924 z m -20.47531,5.09059 c -1.54736,0 -2.80141,1.14157 -2.80141,2.54608 v 8.01238 c 0,1.4057 1.25402,2.54608 2.80141,2.54608 1.54739,0 2.80458,-1.14038 2.80458,-2.54608 v -8.01238 c 0,-1.40451 -1.25711,-2.54608 -2.80458,-2.54608 z"
         fill="#ffffff"
         id="path34098"
         style="stroke-width:0.264583" />
      <path
         d="m -479.68382,-130.69236 c -3.19061,0 -5.77692,2.58774 -5.77692,5.77745 0,3.18971 2.58641,5.77479 5.77692,5.77479 3.19219,0 5.77744,-2.58513 5.77744,-5.77479 0,-3.18966 -2.58535,-5.77745 -5.77744,-5.77745 z m 39.28004,0 c -3.18982,0 -5.77427,2.58774 -5.77427,5.77745 0,3.18971 2.58464,5.77479 5.77427,5.77479 3.19299,0 5.77691,-2.58513 5.77691,-5.77479 0,-3.18966 -2.58402,-5.77745 -5.77691,-5.77745 z"
         fill="#414042"
         id="path34100"
         style="stroke-width:0.264583" />
    </g>
    <g
       id="g82732"
       inkscape:export-filename="/home/abhi/g82732.png"
       inkscape:export-xdpi="96"
       inkscape:export-ydpi="96"
       style="fill:#225500;stroke:#7fff2a">
      <path
         id="rect32581"
         style="fill:#225500;fill-opacity:0;stroke:#7fff2a;stroke-width:2.64583;stroke-miterlimit:4;stroke-dasharray:none;stroke-opacity:1"
         d="m 102.57963,-35.328088 -19.942971,19.944001 c -1.757244,1.757324 -1.757244,4.586475 0,6.343799 1.757243,1.7573236 4.586557,1.7573236 6.343798,0 l 19.942973,-19.944002 -1.85363,-1.853634 -2.63653,-2.63653 z" />
      <path
         id="rect32459"
         style="fill:#225500;fill-opacity:0;stroke:#7fff2a;stroke-width:2.64583;stroke-miterlimit:4;stroke-dasharray:none;stroke-opacity:1"
         d="m 121.57863,-55.410828 c -1.17146,0 -2.34301,0.448503 -3.24063,1.346171 l -9.42682,9.427331 -0.99063,-0.990637 c -1.41087,-1.410933 -3.68237,-1.410933 -5.09323,0 l -2.71095,2.710948 c -1.410865,1.410933 -1.410865,3.682812 0,5.093745 l 4.23127,4.231267 2.63653,2.63653 4.23126,4.231266 c 1.41087,1.410934 3.68237,1.410934 5.09323,0 l 2.71095,-2.710946 c 1.41087,-1.410933 1.41087,-3.682812 0,-5.093745 l -0.99064,-0.990637 9.42682,-9.426816 c 1.79525,-1.795335 1.79525,-4.685922 0,-6.481257 l -2.63705,-2.637049 c -0.89763,-0.897668 -2.06866,-1.346171 -3.24011,-1.346171 z" />
    </g>
  </g>
</svg>
